<svg width="98" height="36" viewBox="0 0 98 36" fill="none" xmlns="http://www.w3.org/2000/svg">
<path fill-rule="evenodd" clip-rule="evenodd" d="M28.9786 22.2423C23.66 25.1783 17.6616 25.8913 11.6232 25.8074C11.1033 25.8074 11.0634 26.8979 11.3433 27.3593C17.1417 30.8825 26.7392 27.1915 32.3377 24.4233C33.2974 23.9619 34.0173 25.2202 33.5374 26.3107C30.8581 32.686 17.8216 36.377 11.5432 35.4123C6.62453 34.3218 3.10547 31.931 1.22597 28.2401C-0.0536948 25.7235 -0.0936842 23.5844 0.0662733 20.7743C0.186241 18.6771 0.626125 16.7897 1.50589 14.9023C1.90578 14.0215 2.46564 12.8052 2.9855 12.0083C18.5814 -12.7379 53.972 8.40118 28.9786 22.2842V22.2423ZM13.4227 13.2665C14.2225 12.176 15.2222 11.2952 16.142 10.5822C17.0618 9.91112 17.8615 9.44975 18.7813 9.03032C19.7011 8.65284 20.7408 8.3173 21.7405 8.3173C22.7402 8.3173 23.7 8.69478 24.3798 9.15615C25.0596 9.61752 25.4595 10.1208 25.7395 10.6661C25.9794 11.2113 26.0994 11.7147 26.0994 12.2599C26.0994 12.8052 25.9794 13.3504 25.7395 13.8537C25.4595 14.357 25.0596 14.7765 24.2598 15.2798C23.4601 15.7831 22.2204 16.3703 21.0607 16.8317C19.901 17.293 18.7413 17.6705 17.5816 17.9641C16.3819 18.2577 15.1823 18.4674 14.2625 18.5933C13.3427 18.6771 12.7829 18.6771 12.343 18.3416C11.9031 18.048 11.6632 17.4189 11.8231 16.4961C11.9831 15.5734 12.6229 14.357 13.4227 13.2665Z" fill="white"/>
<path fill-rule="evenodd" clip-rule="evenodd" d="M56.8911 33.1892C62.1297 33.1892 65.7687 31.1341 67.8882 28.9111L66.8485 27.8206C66.2886 27.2334 65.7687 26.6881 65.2889 26.2268C64.889 25.8073 64.5291 25.4298 64.2092 25.0943C63.8892 24.7588 63.5693 24.4652 63.2894 24.1716C62.8095 23.6683 62.3697 23.2488 62.0097 22.8713L61.8498 22.7036C61.01 23.5005 59.9703 24.0877 58.7306 24.3393C58.0508 24.549 57.371 24.6329 56.6512 24.6329C52.4523 24.6329 49.0932 21.1936 49.0932 16.9155C49.0932 12.6373 52.4923 9.19803 56.6512 9.19803C57.331 9.19803 58.0108 9.28192 58.6107 9.44969C59.9303 9.6594 61.05 10.2466 61.9298 11.0855L62.0497 10.9596C62.4096 10.5821 62.8495 10.1627 63.3294 9.6594C63.6093 9.3658 63.8892 9.0722 64.2492 8.73666C64.5691 8.40112 64.929 8.02363 65.3289 7.60421C65.8087 7.14284 66.3286 6.59758 66.8885 6.01039L67.9682 4.91988C65.8487 2.65497 62.2097 0.641724 56.9711 0.641724C47.6936 0.641724 40.7754 7.22672 40.7754 16.9155C40.7754 26.6881 47.6936 33.2731 56.9711 33.2731L56.8911 33.1892Z" fill="white"/>
<path fill-rule="evenodd" clip-rule="evenodd" d="M86.9224 33.1892C92.161 33.1892 95.8 31.1341 97.9194 28.9111L96.8797 27.8206C96.3199 27.2334 95.8 26.6881 95.3201 26.2268C94.9202 25.8073 94.5603 25.4298 94.2404 25.0943C93.9205 24.7588 93.6006 24.4652 93.3207 24.1716C92.8408 23.6683 92.4009 23.2488 92.041 22.8713L91.881 22.7036C91.0413 23.5005 90.0015 24.0877 88.7619 24.3393C88.0821 24.549 87.4022 24.6329 86.6824 24.6329C82.4835 24.6329 79.1244 21.1936 79.1244 16.9155C79.1244 12.6373 82.5235 9.19803 86.6824 9.19803C87.3622 9.19803 88.0421 9.28192 88.6419 9.44969C89.9616 9.6594 91.0813 10.2466 91.961 11.0855L92.081 10.9596C92.4409 10.5821 92.8808 10.1627 93.3606 9.6594C93.6406 9.3658 93.9205 9.0722 94.2804 8.73666C94.6003 8.40112 94.9602 8.02363 95.3601 7.60421C95.84 7.14284 96.3599 6.59758 96.9197 6.01039L97.9994 4.91988C95.88 2.65497 92.2409 0.641724 87.0023 0.641724C77.7248 0.641724 70.8066 7.22672 70.8066 16.9155C70.8066 26.6881 77.7248 33.2731 87.0023 33.2731L86.9224 33.1892Z" fill="white"/>
</svg>
